<svg width="18" height="18" viewBox="0 0 18 18" fill="none" xmlns="http://www.w3.org/2000/svg">
<path d="M17.6287 3.4875C17.114 3.0375 16.3419 3.0375 15.8272 3.4875L12.2243 6.6375L10.2941 5.0625L13.8971 1.9125C14.4118 1.4625 14.4118 0.7875 13.8971 0.3375C13.3824 -0.1125 12.6103 -0.1125 12.0956 0.3375L8.49266 3.4875L6.69119 1.9125L4.88972 3.4875L5.79045 4.275L3.98898 5.85C2.1875 7.425 2.05883 9.7875 3.34559 11.5875C1.15809 13.275 0 15.8625 0 18H2.57353C2.57353 16.5375 3.08824 14.4 5.27575 13.05C7.2059 13.95 9.65075 13.6125 11.1949 12.2625L12.9963 10.6875L13.8971 11.475L15.6986 9.9L13.8971 8.325L17.5 5.175C18.1434 4.6125 18.1434 3.9375 17.6287 3.4875Z" fill="#2B2B2B"/>
</svg>
