<svg width="103" height="66" viewBox="0 0 103 66" fill="none" xmlns="http://www.w3.org/2000/svg">
<path d="M4.1432 46.9789L9.44852 61.3607L14.7412 46.9789H18.8718V65.7423H15.6886V59.5565L16.0044 51.2831L10.5727 65.7423H8.2864L2.8674 51.296L3.18319 59.5565V65.7423H0V46.9789H4.1432Z" fill="#454545"/>
<path d="M29.1596 66C27.2143 66 25.6353 65.3771 24.4227 64.1314C23.2184 62.8771 22.6163 61.2104 22.6163 59.1313V58.7447C22.6163 57.3529 22.8774 56.1114 23.3995 55.0204C23.93 53.9207 24.6711 53.0658 25.6227 52.4559C26.5743 51.8459 27.6353 51.5409 28.8059 51.5409C30.6669 51.5409 32.1027 52.1466 33.1133 53.3579C34.1322 54.5693 34.6417 56.2833 34.6417 58.4998V59.7627H25.7111C25.8037 60.914 26.1785 61.8246 26.8353 62.4948C27.5006 63.1649 28.3343 63.4999 29.3364 63.4999C30.7427 63.4999 31.888 62.92 32.7722 61.7602L34.427 63.3711C33.8796 64.2044 33.147 64.8531 32.2291 65.317C31.3196 65.7723 30.2964 66 29.1596 66ZM28.7932 54.0538C27.9511 54.0538 27.269 54.3545 26.7469 54.9559C26.2332 55.5573 25.9048 56.395 25.7616 57.4689H31.6101V57.2369C31.5427 56.1888 31.2691 55.3984 30.789 54.8657C30.309 54.3245 29.6438 54.0538 28.7932 54.0538Z" fill="#454545"/>
<path d="M44.9674 54.6595C44.5632 54.5908 44.1463 54.5564 43.7168 54.5564C42.3105 54.5564 41.3631 55.1063 40.8747 56.2059V65.7423H37.8052V51.7986H40.7358L40.8116 53.3579C41.5526 52.1466 42.58 51.5409 43.8937 51.5409C44.3316 51.5409 44.6937 51.601 44.98 51.7213L44.9674 54.6595Z" fill="#454545"/>
<path d="M50.9477 65.7423H47.8782V45.948H50.9477V65.7423Z" fill="#454545"/>
<path d="M58.3429 65.7423H55.2733V51.7986H58.3429V65.7423Z" fill="#454545"/>
<path d="M65.3211 51.7986L65.4095 53.4095C66.4201 52.1638 67.7464 51.5409 69.3885 51.5409C72.2349 51.5409 73.6833 53.2033 73.7338 56.5281V65.7423H70.6643V56.7085C70.6643 55.8236 70.4749 55.1707 70.0959 54.7497C69.7254 54.3202 69.1148 54.1054 68.2643 54.1054C67.0264 54.1054 66.1043 54.6767 65.498 55.8193V65.7423H62.4285V51.7986H65.3211Z" fill="#454545"/>
<path d="M83.6679 66C81.7226 66 80.1437 65.3771 78.931 64.1314C77.7268 62.8771 77.1247 61.2104 77.1247 59.1313V58.7447C77.1247 57.3529 77.3857 56.1114 77.9079 55.0204C78.4384 53.9207 79.1795 53.0658 80.131 52.4559C81.0826 51.8459 82.1437 51.5409 83.3142 51.5409C85.1753 51.5409 86.6111 52.1466 87.6217 53.3579C88.6406 54.5693 89.1501 56.2833 89.1501 58.4998V59.7627H80.2195C80.3121 60.914 80.6868 61.8246 81.3437 62.4948C82.009 63.1649 82.8427 63.4999 83.8448 63.4999C85.2511 63.4999 86.3964 62.92 87.2806 61.7602L88.9353 63.3711C88.388 64.2044 87.6553 64.8531 86.7374 65.317C85.8279 65.7723 84.8048 66 83.6679 66ZM83.3016 54.0538C82.4595 54.0538 81.7774 54.3545 81.2553 54.9559C80.7416 55.5573 80.4131 56.395 80.27 57.4689H86.1185V57.2369C86.0511 56.1888 85.7774 55.3984 85.2974 54.8657C84.8174 54.3245 84.1521 54.0538 83.3016 54.0538Z" fill="#454545"/>
<path d="M99.981 61.9535C99.981 61.3951 99.7537 60.9698 99.2989 60.6777C98.8526 60.3856 98.1073 60.1279 97.0631 59.9045C96.0189 59.6811 95.1473 59.3976 94.4483 59.054C92.9157 58.2979 92.1494 57.2025 92.1494 55.7678C92.1494 54.565 92.6462 53.5598 93.6399 52.7523C94.6336 51.9447 95.8968 51.5409 97.4294 51.5409C99.0631 51.5409 100.381 51.9533 101.383 52.778C102.394 53.6028 102.899 54.6724 102.899 55.9869H99.8294C99.8294 55.3855 99.6105 54.8872 99.1726 54.492C98.7347 54.0882 98.1536 53.8863 97.4294 53.8863C96.7557 53.8863 96.2041 54.0452 95.7747 54.3631C95.3536 54.681 95.1431 55.1063 95.1431 55.6389C95.1431 56.12 95.341 56.4938 95.7368 56.7601C96.1326 57.0264 96.9326 57.297 98.1368 57.572C99.341 57.8383 100.284 58.1605 100.966 58.5385C101.657 58.9079 102.166 59.3547 102.495 59.8787C102.832 60.4028 103 61.0385 103 61.786C103 63.0403 102.491 64.0584 101.472 64.8402C100.453 65.6134 99.1179 66 97.4673 66C96.3473 66 95.3494 65.7938 94.4736 65.3814C93.5978 64.969 92.9157 64.402 92.4273 63.6804C91.9388 62.9587 91.6946 62.1812 91.6946 61.3478H94.6757C94.7178 62.0867 94.9915 62.658 95.4968 63.0618C96.002 63.457 96.6715 63.6546 97.5052 63.6546C98.3136 63.6546 98.9284 63.4999 99.3494 63.1907C99.7705 62.8728 99.981 62.4604 99.981 61.9535Z" fill="#454545"/>
<path d="M60.4952 38.579C59.2854 37 57.2115 37 57.2115 37C54.7919 37 52.718 39.1054 52.5451 41.6494C52.4587 44.1934 56.7794 50.685 56.7794 50.685C56.7794 50.685 58.5077 48.4919 60.1496 45.9479C61.7914 43.4039 61.705 41.6494 61.705 41.6494C61.705 41.6494 61.705 40.1581 60.4952 38.579ZM57.1251 43.9302C54.4462 43.9302 54.4462 39.7194 57.1251 39.7194C59.8039 39.7194 59.8039 43.9302 57.1251 43.9302Z" fill="#454545"/>
<mask id="mask0" mask-type="alpha" maskUnits="userSpaceOnUse" x="5" y="0" width="44" height="43">
<path d="M48.2705 21.3165C48.2705 33.0757 38.6657 42.633 26.8481 42.633C15.0305 42.633 5.42578 33.0757 5.42578 21.3165C5.42578 9.55729 15.0305 0 26.8481 0C38.6657 0 48.2705 9.55729 48.2705 21.3165Z" fill="#BEF025"/>
</mask>
<g mask="url(#mask0)">
<path d="M48.2705 21.3165C48.2705 33.0757 38.6657 42.633 26.8481 42.633C15.0305 42.633 5.42578 33.0757 5.42578 21.3165C5.42578 9.55729 15.0305 0 26.8481 0C38.6657 0 48.2705 9.55729 48.2705 21.3165Z" fill="#59D554"/>
<path d="M24.5414 0L40.7376 7.68331L45.5871 6.46523L47.847 12.5088L46.6229 13.1647L3.91943 24.4554L4.43734 17.2406L35.3232 9.0888L17.3378 0.515347L24.5414 0Z" fill="white"/>
<path d="M5.84961 16.9597L35.323 9.08902L19.1738 1.31201C19.1738 1.31201 8.67454 4.63832 5.84961 16.9597Z" fill="#FFD631"/>
</g>
</svg>
