<svg width="43" height="21" viewBox="0 0 43 21" fill="none" xmlns="http://www.w3.org/2000/svg">
<path d="M42.6781 8.20666L40.4623 3.32332C39.6644 1.58694 37.9305 0.472046 36.0195 0.466797H4.24996C1.90365 0.469246 0.00244955 2.37044 0 4.71676V15.3376C0.00174967 16.6233 1.04351 17.665 2.32917 17.6668H5.80507C6.14416 19.337 7.61248 20.537 9.31667 20.537C11.0208 20.537 12.4892 19.337 12.8283 17.6668H30.1717C30.5108 19.337 31.9791 20.537 33.6833 20.537C35.3875 20.537 36.8558 19.337 37.1949 17.6668H41.0078C42.1077 17.6657 42.9989 16.7745 43 15.6746V9.69038C43.0003 9.17843 42.8905 8.67242 42.6781 8.20666ZM41.1243 8.25355L34.4 7.69085V4.68071L39.2319 4.07673L41.1243 8.25355ZM9.31667 19.1001C8.12934 19.1001 7.16667 18.1375 7.16667 16.9501C7.16667 15.7628 8.12934 14.8001 9.31667 14.8001C10.504 14.8001 11.4667 15.7628 11.4667 16.9501C11.4667 18.1375 10.504 19.1001 9.31667 19.1001ZM33.6833 19.1001C32.496 19.1001 31.5333 18.1375 31.5333 16.9501C31.5333 15.7628 32.496 14.8001 33.6833 14.8001C34.8707 14.8001 35.8333 15.7628 35.8333 16.9501C35.8333 18.1375 34.8707 19.1001 33.6833 19.1001ZM41.0078 16.2335H37.1949C36.8558 14.5632 35.3875 13.3633 33.6833 13.3633C31.9791 13.3633 30.5108 14.5632 30.1717 16.2335H12.8283C12.4892 14.5632 11.0208 13.3633 9.31667 13.3633C7.61248 13.3633 6.14416 14.5632 5.80507 16.2335H2.32917C1.83471 16.2328 1.43403 15.8321 1.43333 15.3376V4.71676C1.43508 3.16165 2.69485 1.90188 4.24996 1.90013H36.0195C36.853 1.90188 37.6575 2.20492 38.285 2.75292L33.6389 3.33346H5.73333C5.33756 3.33346 5.01667 3.65435 5.01667 4.05013V8.35013C5.01667 8.74591 5.33756 9.0668 5.73333 9.0668H33.6532L41.5667 9.72607V15.6746C41.5663 15.9829 41.3161 16.2331 41.0078 16.2335ZM6.45 7.63346V4.7668H11.4667V7.63346H6.45ZM12.9 4.7668H18.6333V7.63346H12.9V4.7668ZM20.0667 4.7668H25.0833V7.63346H20.0667V4.7668ZM26.5167 4.7668H32.9667V7.63346H26.5167V4.7668Z" fill="white"/>
</svg>
