<svg width="50" height="50" viewBox="0 0 50 50" fill="none" xmlns="http://www.w3.org/2000/svg">
<path d="M46.7341 12.6874C47.5673 11.9108 48.0895 10.8067 48.0895 9.58284C48.0895 7.23803 46.1756 5.33049 43.823 5.33049C42.8898 5.33049 42.0263 5.63144 41.3233 6.13992C36.7848 2.23859 31.0192 0.0976562 25 0.0976562C19.8086 0.0976562 14.8576 1.65792 10.6388 4.61487C9.69989 3.77672 8.46104 3.26568 7.10427 3.26568C4.18017 3.26568 1.80122 5.63636 1.80122 8.55034C1.80122 10.0529 2.43471 11.4098 3.44833 12.3729C1.19164 16.188 0 20.5458 0 25.0002C0 29.8898 1.41371 34.5979 4.09303 38.6577C3.50596 39.3456 3.15061 40.2356 3.15061 41.2073C3.15061 43.3803 4.9243 45.1483 7.10447 45.1483C7.94637 45.1483 8.72699 44.8838 9.36893 44.435C13.7879 47.9639 19.3197 49.9028 25 49.9028C31.6773 49.9028 37.9549 47.3129 42.6767 42.6101C47.3993 37.9065 50.0001 31.6526 50.0001 25.0003C50 20.6698 48.872 16.4257 46.7341 12.6874ZM38.7723 30.1164C38.9398 28.6819 39.0375 27.2141 39.0616 25.7378H48.4513C47.9931 28.0421 45.405 30.2507 41.1835 31.9106C40.6305 31.0527 39.7772 30.4053 38.7723 30.1164ZM34.8008 34.2021C34.8008 32.6707 36.053 31.4249 37.5922 31.4249C39.1313 31.4249 40.3834 32.6707 40.3834 34.2021C40.3834 35.7334 39.1313 36.9791 37.5922 36.9791C36.053 36.9792 34.8008 35.7334 34.8008 34.2021ZM33.3325 33.9654C30.9006 34.3507 28.3519 34.5618 25.7377 34.5953V25.7378H37.586C37.5619 27.1621 37.4673 28.5775 37.3053 29.9603C35.1645 30.1029 33.4509 31.8253 33.3325 33.9654ZM11.9285 20.1783C12.3328 20.2306 12.7026 19.9457 12.7549 19.5417C12.8797 18.5796 13.0383 17.6349 13.2283 16.7132C16.5645 15.9064 20.3299 15.4554 24.2623 15.4051V24.2626H12.4143C12.4239 23.695 12.4438 23.1275 12.4752 22.5681C12.498 22.1613 12.1867 21.8131 11.78 21.7903C11.3737 21.7678 11.0251 22.0787 11.0023 22.4855C10.9693 23.0722 10.9486 23.6675 10.9388 24.2627H1.5518C1.99065 22.102 4.33369 19.9877 8.13314 18.3688C9.21983 17.9058 10.3947 17.4936 11.641 17.1339C11.507 17.8574 11.39 18.5968 11.292 19.352C11.2395 19.7559 11.5245 20.1259 11.9285 20.1783ZM39.0613 24.2626C39.0215 21.8065 38.7834 19.4105 38.3607 17.1343C39.6063 17.4939 40.7807 17.9059 41.867 18.3687C45.6664 19.9876 48.0094 22.1019 48.4483 24.2626H39.0613ZM37.5858 24.2626H25.7376V15.4051C29.672 15.4554 33.4391 15.9069 36.7765 16.7145C37.2663 19.1035 37.5421 21.6455 37.5858 24.2626ZM25.7376 13.9296V1.61494C28.745 1.94373 31.5773 4.27625 33.7799 8.26945C34.8903 10.2823 35.7745 12.5989 36.4114 15.1167C33.1399 14.3855 29.5095 13.9768 25.7376 13.9296ZM24.2623 13.9296C20.4932 13.9767 16.8654 14.3848 13.5958 15.1151C14.4363 11.8021 15.6954 8.85218 17.2731 6.55812C19.3189 3.58326 21.7218 1.88845 24.2623 1.61356V13.9296ZM10.9387 25.7379C10.9785 28.1939 11.2166 30.59 11.6393 32.8662C10.3937 32.5066 9.21934 32.0946 8.13304 31.6317C4.33359 30.0129 1.99055 27.8986 1.5517 25.7379H10.9387ZM12.4143 25.7379H24.2624V34.5954C20.328 34.5451 16.5609 34.0936 13.2235 33.286C12.7338 30.8968 12.4579 28.3549 12.4143 25.7379ZM24.2623 36.0708V48.3855C21.255 48.0567 18.4227 45.7242 16.22 41.731C15.1096 39.7182 14.2254 37.4016 13.5885 34.8838C16.8602 35.615 20.4905 36.0237 24.2623 36.0708ZM46.6142 9.58274C46.6142 11.1141 45.3621 12.3599 43.823 12.3599C42.2839 12.3599 41.0317 11.1141 41.0317 9.58274C41.0317 8.0514 42.2838 6.80567 43.823 6.80567C45.362 6.80567 46.6142 8.0515 46.6142 9.58274ZM40.2916 7.19898C39.8278 7.87938 39.5564 8.70003 39.5564 9.58274C39.5564 11.9276 41.4703 13.8352 43.823 13.8352C44.4165 13.8352 44.982 13.7134 45.496 13.4942C46.7714 15.7436 47.6592 18.1861 48.1301 20.7191C46.8497 19.3311 44.9339 18.0718 42.4454 17.0115C41.0906 16.4343 39.6069 15.9328 38.0237 15.5108C37.3471 12.5767 36.3526 9.87849 35.0719 7.55679C33.8401 5.3239 32.4091 3.55749 30.8452 2.30478C34.3075 3.1867 37.5372 4.84984 40.2916 7.19898ZM3.2766 8.55054C3.2766 6.45003 4.99373 4.74116 7.10437 4.74116C9.21501 4.74116 10.9321 6.45003 10.9321 8.55054C10.9321 10.651 9.21501 12.3599 7.10437 12.3599C4.99373 12.3599 3.2766 10.651 3.2766 8.55054ZM4.65324 13.2346C5.38695 13.6174 6.22038 13.8352 7.10437 13.8352C10.0285 13.8352 12.4074 11.4645 12.4074 8.55054C12.4074 7.52089 12.1093 6.55979 11.5961 5.74632C13.9199 4.13718 16.4768 2.97623 19.1753 2.29376C15.9415 4.86764 13.3457 9.54999 11.9772 15.5106C10.3937 15.9326 8.90982 16.4342 7.55473 17.0116C5.06622 18.0719 3.15042 19.3312 1.86997 20.7192C2.35898 18.0883 3.29716 15.556 4.65324 13.2346ZM7.10437 43.6729C5.73767 43.6729 4.6258 42.5668 4.6258 41.2072C4.6258 39.8477 5.73767 38.7416 7.10437 38.7416C8.47108 38.7416 9.58295 39.8477 9.58295 41.2072C9.58295 42.5668 8.47098 43.6729 7.10437 43.6729ZM10.4048 43.3737C10.8173 42.7516 11.0582 42.0071 11.0582 41.2072C11.0582 39.0342 9.28455 37.2663 7.10437 37.2663C6.43381 37.2663 5.80209 37.4341 5.24817 37.7289C3.5634 35.1428 2.42212 32.2808 1.86672 29.2777C3.14717 30.6671 5.06416 31.9277 7.55483 32.9889C8.90963 33.5661 10.3933 34.0676 11.9764 34.4896C12.6531 37.4237 13.6475 40.1219 14.9283 42.4436C16.1574 44.6717 17.5849 46.435 19.1448 47.6872C15.9765 46.8759 12.9913 45.4128 10.4048 43.3737ZM41.6356 41.5647C38.596 44.5922 34.8707 46.6885 30.8086 47.7112C32.0965 46.6882 34.8413 42.466 35.9088 40.7837C36.127 40.4398 35.2743 41.3635 34.9303 41.1452C34.586 40.9268 34.7869 39.8228 34.5687 40.1667C32.4767 43.4635 28.4299 48.0841 25.7377 48.385V36.0708C28.4096 36.0374 31.0168 35.8228 33.508 35.4311C33.8278 36.4847 34.5477 37.3663 35.4908 37.9006C35.2085 38.6876 34.8997 39.448 34.5687 40.1667C34.3984 40.5367 34.5602 40.9749 34.9303 41.1452C35.0302 41.1913 35.135 41.213 35.2383 41.213C35.5173 41.213 35.7845 41.0538 35.9088 40.7837C36.2582 40.0248 36.5839 39.223 36.881 38.3941C37.1124 38.433 37.3498 38.4543 37.5922 38.4543C39.9448 38.4543 41.8587 36.5467 41.8587 34.202C41.8587 33.8822 41.8219 33.571 41.7545 33.2713C44.2038 32.3052 46.1587 31.154 47.567 29.8458C47.7684 29.6586 47.9575 29.4694 48.1342 29.2783C47.2812 33.9065 45.0481 38.166 41.6356 41.5647Z" fill="#59D554"/>
</svg>
