<svg width="19" height="19" viewBox="0 0 19 19" fill="none" xmlns="http://www.w3.org/2000/svg">
<path d="M0.709312 18.2256H18.2744C18.6488 18.2256 18.9419 17.9326 18.9419 17.5582V2.66283C18.9419 2.28841 18.6488 1.99539 18.2744 1.99539H14.9698V1.42562C14.9698 1.0512 14.6768 0.758179 14.3023 0.758179C13.9279 0.758179 13.6349 1.0512 13.6349 1.42562V1.99539H5.4628V1.42562C5.4628 1.0512 5.16978 0.758179 4.79536 0.758179C4.42094 0.758179 4.12792 1.0512 4.12792 1.42562V1.99539H0.709312C0.334893 1.99539 0.0418701 2.28841 0.0418701 2.66283V17.5745C0.0418701 17.9326 0.351172 18.2256 0.709312 18.2256ZM1.37675 3.33027H4.12792V3.68841C4.12792 4.06283 4.42094 4.35585 4.79536 4.35585C5.16978 4.35585 5.4628 4.06283 5.4628 3.68841V3.33027H13.6349V3.68841C13.6349 4.06283 13.9279 4.35585 14.3023 4.35585C14.6768 4.35585 14.9698 4.06283 14.9698 3.68841V3.33027H17.6233V5.05585H1.37675V3.33027ZM1.37675 6.39074H17.607V16.907H1.37675V6.39074Z" fill="#59D554"/>
<path d="M14.3024 9.45123H4.69772C4.3233 9.45123 4.03027 9.74426 4.03027 10.1187C4.03027 10.4931 4.3233 10.7861 4.69772 10.7861H14.3024C14.6768 10.7861 14.9698 10.4931 14.9698 10.1187C14.9698 9.74426 14.6768 9.45123 14.3024 9.45123Z" fill="#59D554"/>
<path d="M9.50004 12.6744H4.69772C4.3233 12.6744 4.03027 12.9675 4.03027 13.3419C4.03027 13.7163 4.3233 14.0093 4.69772 14.0093H9.50004C9.87446 14.0093 10.1675 13.7163 10.1675 13.3419C10.1675 12.9675 9.87446 12.6744 9.50004 12.6744Z" fill="#59D554"/>
</svg>
