<svg width="28" height="30" viewBox="0 0 28 30" fill="none" xmlns="http://www.w3.org/2000/svg">
<path d="M25.2463 8.35312C25.2022 7.87031 24.7991 7.5 24.3125 7.5H19.625V5.625C19.625 2.52281 17.1031 0 14 0C10.8978 0 8.375 2.52281 8.375 5.625V7.5H3.6875C3.20187 7.5 2.79781 7.87031 2.75375 8.35312L0.878748 28.9781C0.85531 29.2397 0.942498 29.5003 1.12062 29.6944C1.29781 29.8894 1.54906 30 1.8125 30H26.1875C26.4509 30 26.7022 29.8894 26.8794 29.6944C27.0556 29.5003 27.1447 29.2406 27.1213 28.9781L25.2463 8.35312ZM10.25 5.625C10.25 3.55687 11.9328 1.875 14 1.875C16.0672 1.875 17.75 3.55687 17.75 5.625V7.5H10.25V5.625ZM2.84 28.125L4.54344 9.375H8.375V11.5097C7.81625 11.835 7.4375 12.4331 7.4375 13.125C7.4375 14.16 8.2775 15 9.3125 15C10.3475 15 11.1875 14.16 11.1875 13.125C11.1875 12.4331 10.8087 11.835 10.25 11.5097V9.375H17.75V11.5097C17.1912 11.835 16.8125 12.4322 16.8125 13.125C16.8125 14.16 17.6525 15 18.6875 15C19.7225 15 20.5625 14.16 20.5625 13.125C20.5625 12.4331 20.1847 11.835 19.625 11.5097V9.375H23.4566L25.16 28.125H2.84Z" fill="white"/>
</svg>
