<svg width="35" height="35" viewBox="0 0 35 35" fill="none" xmlns="http://www.w3.org/2000/svg">
<rect x="1" y="1" width="33" height="33" rx="7" fill="white" stroke="#2B2B2B" stroke-width="2"/>
<g clip-path="url(#clip0)">
<path d="M23.3327 6.31088L20.3887 6.30615C17.0812 6.30615 14.9437 8.49912 14.9437 11.8933V14.4694H11.9837C11.7279 14.4694 11.5208 14.6767 11.5208 14.9325V18.6649C11.5208 18.9207 11.7281 19.1279 11.9837 19.1279H14.9437V28.5459C14.9437 28.8017 15.1509 29.0089 15.4066 29.0089H19.2687C19.5245 29.0089 19.7316 28.8015 19.7316 28.5459V19.1279H23.1926C23.4484 19.1279 23.6555 18.9207 23.6555 18.6649L23.6569 14.9325C23.6569 14.8097 23.608 14.6921 23.5214 14.6052C23.4347 14.5183 23.3166 14.4694 23.1938 14.4694H19.7316V12.2856C19.7316 11.236 19.9817 10.7032 21.349 10.7032L23.3322 10.7025C23.5877 10.7025 23.7949 10.4951 23.7949 10.2396V6.7738C23.7949 6.51848 23.588 6.31135 23.3327 6.31088Z" fill="#2B2B2B"/>
</g>
<defs>
<clipPath id="clip0">
<rect width="22.7027" height="22.7027" fill="white" transform="translate(6.3064 6.30615)"/>
</clipPath>
</defs>
</svg>
