<svg width="44" height="44" viewBox="0 0 44 44" fill="none" xmlns="http://www.w3.org/2000/svg">
<rect width="44" height="44" rx="4" fill="#3B5998"/>
<path d="M28.4989 9.00541L25.1273 9C21.3394 9 18.8916 11.5115 18.8916 15.3986V18.3488H15.5016C15.2087 18.3488 14.9714 18.5863 14.9714 18.8793V23.1538C14.9714 23.4467 15.2089 23.6839 15.5016 23.6839H18.8916V34.4698C18.8916 34.7628 19.1288 35 19.4217 35H23.8447C24.1376 35 24.3748 34.7625 24.3748 34.4698V23.6839H28.3385C28.6314 23.6839 28.8686 23.4467 28.8686 23.1538L28.8703 18.8793C28.8703 18.7386 28.8143 18.6039 28.715 18.5044C28.6157 18.4048 28.4805 18.3488 28.3398 18.3488H24.3748V15.8479C24.3748 14.6459 24.6613 14.0357 26.2271 14.0357L28.4983 14.0348C28.791 14.0348 29.0282 13.7974 29.0282 13.5047V9.53556C29.0282 9.24317 28.7913 9.00595 28.4989 9.00541Z" fill="white"/>
</svg>
