<svg width="44" height="44" viewBox="0 0 44 44" fill="none" xmlns="http://www.w3.org/2000/svg">
<rect width="44" height="44" rx="4" fill="#D34836"/>
<path d="M28.4186 21.9766H19.8233V24.8418H25.0673C24.285 27.3326 21.9584 29.1394 19.2092 29.1394C15.8184 29.1394 13.0698 26.3906 13.0698 22.9999C13.0698 19.6091 15.8185 16.8604 19.2092 16.8604C20.9168 16.8604 22.4612 17.5577 23.574 18.6827L25.6537 16.4222C23.9928 14.7946 21.7185 13.7907 19.2092 13.7907C14.1231 13.7907 10 17.9138 10 22.9999C10 28.086 14.1231 32.2092 19.2093 32.2092C23.6646 32.2092 27.5653 29.0452 28.4186 24.8418V21.9767L28.4186 21.9766Z" fill="white"/>
<path d="M34 21.9717H32.2419V20.2136H30.7348V21.9717H28.9767V23.4786H30.7348V25.2368H32.2419V23.4786H34V21.9717Z" fill="white"/>
</svg>
