<svg width="32" height="44" viewBox="0 0 32 44" fill="none" xmlns="http://www.w3.org/2000/svg">
<path d="M30.3922 10.875C30.3287 10.6875 30.2175 10.3906 30.0586 9.98438C29.8998 9.57812 29.7886 9.3125 29.725 9.1875C28.3906 6.125 26.4367 3.85938 23.8633 2.39062C21.2899 0.921875 18.6052 0.1875 15.8094 0.1875C12.1875 0.1875 8.91513 1.35938 5.99221 3.70312C3.0693 6.04688 1.35367 9.34375 0.845337 13.5938V15.375L0.940649 15.8438V16.5C1.06773 17.5 1.40133 18.6406 1.94143 19.9219C2.48153 21.2031 2.97398 22.2344 3.41877 23.0156C3.86357 23.7969 4.57841 24.9844 5.56331 26.5781C6.5482 28.1719 7.1995 29.2188 7.51721 29.7188C9.35992 32.7812 12.1875 37.3125 16 43.3125C16.5084 42.5 18.2558 39.5625 21.2422 34.5C21.3693 34.3125 21.6076 33.9375 21.9571 33.375C22.3065 32.8125 22.5448 32.375 22.6719 32.0625C22.799 31.875 23.0055 31.6094 23.2914 31.2656C23.5774 30.9219 23.7839 30.6562 23.911 30.4688C24.3558 29.6562 25.3248 28.1094 26.818 25.8281C28.3112 23.5469 29.4073 21.625 30.1063 20.0625C30.8052 18.5 31.1547 16.9688 31.1547 15.4688V13.4062C31.1547 12.7188 30.9005 11.875 30.3922 10.875ZM15.9047 20.1562C13.4266 20.1562 11.711 18.9688 10.7578 16.5938C10.6943 16.2812 10.6625 15.8125 10.6625 15.1875V13.9688C10.6625 12.4062 11.2026 11.2031 12.2828 10.3594C13.363 9.51562 14.6339 9.09375 16.0953 9.09375C17.6839 9.09375 19.0024 9.625 20.0508 10.6875C21.0992 11.75 21.6235 13.0625 21.6235 14.625C21.6235 16.1875 21.0675 17.5 19.9555 18.5625C18.8435 19.625 17.4933 20.1562 15.9047 20.1562Z" fill="#59D554"/>
</svg>
