<svg width="35" height="35" viewBox="0 0 35 35" fill="none" xmlns="http://www.w3.org/2000/svg">
<rect x="1" y="1" width="33" height="33" rx="7" fill="white" stroke="#2B2B2B" stroke-width="2"/>
<g clip-path="url(#clip0)">
<path d="M21.5907 5.9502H13.0594C9.13365 5.9502 5.95007 9.13377 5.95007 13.0596V21.5908C5.95007 25.5166 9.13365 28.7002 13.0594 28.7002H21.5907C25.5165 28.7002 28.7001 25.5166 28.7001 21.5908V13.0596C28.7001 9.13377 25.5165 5.9502 21.5907 5.9502ZM26.5673 21.5908C26.5673 24.335 24.3349 26.5674 21.5907 26.5674H13.0594C10.3152 26.5674 8.08289 24.335 8.08289 21.5908V13.0596C8.08289 10.3154 10.3152 8.08301 13.0594 8.08301H21.5907C24.3349 8.08301 26.5673 10.3154 26.5673 13.0596V21.5908Z" fill="#2B2B2B"/>
<path d="M17.3251 11.6377C14.1842 11.6377 11.6376 14.1843 11.6376 17.3252C11.6376 20.4661 14.1842 23.0127 17.3251 23.0127C20.4661 23.0127 23.0126 20.4661 23.0126 17.3252C23.0126 14.1843 20.4661 11.6377 17.3251 11.6377ZM17.3251 20.8799C15.3658 20.8799 13.7704 19.2845 13.7704 17.3252C13.7704 15.3644 15.3658 13.7705 17.3251 13.7705C19.2845 13.7705 20.8798 15.3644 20.8798 17.3252C20.8798 19.2845 19.2845 20.8799 17.3251 20.8799Z" fill="#2B2B2B"/>
<path d="M23.4391 11.9691C23.8577 11.9691 24.197 11.6298 24.197 11.2112C24.197 10.7927 23.8577 10.4534 23.4391 10.4534C23.0206 10.4534 22.6813 10.7927 22.6813 11.2112C22.6813 11.6298 23.0206 11.9691 23.4391 11.9691Z" fill="#2B2B2B"/>
</g>
<defs>
<clipPath id="clip0">
<rect width="22.75" height="22.75" fill="white" transform="translate(5.95007 5.9502)"/>
</clipPath>
</defs>
</svg>
