<svg width="44" height="50" viewBox="0 0 44 50" fill="none" xmlns="http://www.w3.org/2000/svg">
<path d="M43.239 13.5663L43.2374 13.5274C43.2157 13.0471 43.2012 12.539 43.1924 11.9736C43.1516 9.21676 40.9601 6.93634 38.2028 6.78223C32.4541 6.46141 28.0069 4.58687 24.2071 0.883195L24.1747 0.852296C22.9353 -0.284099 21.0657 -0.284099 19.8259 0.852296L19.7935 0.883195C15.9937 4.58687 11.5465 6.46141 5.7978 6.78261C3.04093 6.93634 0.849011 9.21676 0.808194 11.974C0.799802 12.5355 0.784925 13.0437 0.763181 13.5274L0.760892 13.6178C0.649122 19.4798 0.510267 26.7754 2.9509 33.3973C4.29291 37.0388 6.32538 40.2042 8.99146 42.8062C12.028 45.7695 16.0051 48.122 20.8124 49.7982C20.9688 49.8527 21.1313 49.897 21.2969 49.9301C21.5303 49.9767 21.7653 50 22.0003 50C22.2353 50 22.4707 49.9767 22.7037 49.9301C22.8693 49.897 23.0329 49.8523 23.1901 49.7974C27.9916 48.1182 31.9646 45.7645 34.9985 42.8016C37.6634 40.1989 39.6959 37.0327 41.039 33.3904C43.4888 26.7487 43.3503 19.4394 43.239 13.5663ZM38.2863 32.3753C35.7122 39.3547 30.4575 44.1478 22.2219 47.0279C22.1926 47.0378 22.1613 47.0466 22.1289 47.0531C22.0438 47.0699 21.9572 47.0699 21.871 47.0527C21.8389 47.0462 21.8077 47.0378 21.7787 47.0279C13.5344 44.1532 8.27621 39.3627 5.70396 32.383C3.45444 26.2791 3.58185 19.582 3.69439 13.6738L3.69515 13.641C3.71804 13.1333 3.7333 12.6015 3.74169 12.0171C3.76 10.793 4.73503 9.78019 5.96145 9.7119C9.21462 9.53033 12.0726 8.90167 14.6986 7.79007C17.3212 6.67999 19.6505 5.11521 21.8187 3.00645C21.929 2.91337 22.072 2.91299 22.1819 3.00645C24.3505 5.11521 26.6798 6.67999 29.302 7.79007C31.928 8.90167 34.786 9.53033 38.0395 9.7119C39.266 9.78019 40.241 10.793 40.2589 12.0175C40.2677 12.605 40.283 13.1367 40.3058 13.641C40.418 19.5561 40.5424 26.2585 38.2863 32.3753Z" fill="#59D554"/>
<path d="M21.9998 12.54C15.1287 12.54 9.53906 18.1301 9.53906 25.0007C9.53906 31.8718 15.1287 37.4618 21.9998 37.4618C28.8704 37.4618 34.4605 31.8718 34.4605 25.0007C34.4605 18.1301 28.8704 12.54 21.9998 12.54ZM21.9998 34.5276C16.7466 34.5276 12.4729 30.254 12.4729 25.0007C12.4729 19.7475 16.7466 15.4739 21.9998 15.4739C27.2526 15.4739 31.5262 19.7475 31.5262 25.0007C31.5262 30.254 27.2526 34.5276 21.9998 34.5276Z" fill="#59D554"/>
<path d="M25.5816 21.1322L19.7939 26.9198L18.223 25.3489C17.65 24.776 16.7212 24.776 16.1482 25.3489C15.5756 25.9219 15.5756 26.8508 16.1482 27.4234L18.7567 30.0318C19.0432 30.3183 19.4185 30.4614 19.7939 30.4614C20.1693 30.4614 20.5446 30.3183 20.8311 30.0318L27.6564 23.2066C28.229 22.6336 28.229 21.7047 27.6564 21.1322C27.0834 20.5588 26.1545 20.5588 25.5816 21.1322Z" fill="#59D554"/>
</svg>
