<svg width="77" height="77" viewBox="0 0 77 77" fill="none" xmlns="http://www.w3.org/2000/svg">
<g clip-path="url(#clip0)">
<path d="M76.7858 39.7837L67.9984 16.031C67.6792 15.1679 67.0429 14.4809 66.2068 14.0965C65.3707 13.7121 64.4352 13.676 63.5721 13.9954L20.7232 29.8475C19.8601 30.1668 19.1731 30.8031 18.7886 31.639C18.4042 32.475 18.3682 33.4107 18.6875 34.2737L27.475 58.0264C27.7941 58.8895 28.4304 59.5765 29.2666 59.961C29.7253 60.172 30.2139 60.2779 30.7042 60.2779C31.1075 60.2779 31.5118 60.2063 31.9014 60.0621L74.7505 44.21H74.7506C76.5317 43.5508 77.4449 41.5652 76.7858 39.7837ZM61.2168 18.54L47.9257 37.5409L25.4683 31.7652L61.2168 18.54ZM30.0847 55.1529L22.4625 34.5493L40.1156 39.0899L30.0847 55.1529ZM33.8173 55.6801L43.6155 39.9899L48.2238 41.1753C48.3668 41.2115 48.5115 41.2304 48.6527 41.2304C49.2074 41.2304 49.7379 40.9617 50.0652 40.4949L52.7922 36.5932L70.4434 42.1302L33.8173 55.6801ZM54.8646 33.633L65.3112 18.6956L72.9364 39.302L54.8646 33.633Z" fill="#59D554"/>
<path d="M20.0682 58.4984C19.7383 57.6061 18.7469 57.1507 17.8552 57.4805L11.364 59.882C10.4718 60.2122 10.0162 61.203 10.3462 62.0951C10.6034 62.7904 11.2615 63.2203 11.9619 63.2203C12.1602 63.2203 12.3623 63.1857 12.5594 63.1128L19.0502 60.7114C19.9428 60.3816 20.3983 59.3906 20.0682 58.4984Z" fill="#59D554"/>
<path d="M11.2828 42.5072C10.9525 41.615 9.9616 41.1597 9.06964 41.4894L5.06278 42.9718C4.17051 43.3021 3.71498 44.2927 4.04493 45.1849C4.3021 45.88 4.96036 46.3102 5.66058 46.3102C5.85895 46.3102 6.06107 46.2756 6.25808 46.2026L10.2649 44.7202C11.1572 44.3904 11.6129 43.3995 11.2828 42.5072Z" fill="#59D554"/>
<path d="M6.31571 55.5554C5.98545 54.6632 4.99453 54.2077 4.10256 54.5376L1.12528 55.6391C0.23301 55.9693 -0.222523 56.9601 0.107434 57.8522C0.364602 58.5473 1.02271 58.9774 1.72308 58.9774C1.92145 58.9774 2.12357 58.9428 2.32058 58.8699L5.29787 57.7684C6.19028 57.4385 6.64582 56.4477 6.31571 55.5554Z" fill="#59D554"/>
</g>
<defs>
<clipPath id="clip0">
<rect width="77" height="77" fill="white"/>
</clipPath>
</defs>
</svg>
