<svg width="1071" height="24" viewBox="0 0 1071 24" fill="none" xmlns="http://www.w3.org/2000/svg">
<path d="M6.33977 0.572394L8.5 0.572388L1.92264 23.2327L0.000115739 22.6814L6.33977 0.572394Z" fill="black"/>
<path d="M15.3398 0.572394L17.5 0.572388L10.9226 23.2327L9.00012 22.6814L15.3398 0.572394Z" fill="black"/>
<path d="M24.3398 0.572394L26.5 0.572388L19.9226 23.2327L18.0001 22.6814L24.3398 0.572394Z" fill="black"/>
<path d="M33.3398 0.572394L35.5 0.572388L28.9226 23.2327L27.0001 22.6814L33.3398 0.572394Z" fill="black"/>
<path d="M42.3398 0.572394L44.5 0.572388L37.9226 23.2327L36.0001 22.6814L42.3398 0.572394Z" fill="black"/>
<path d="M51.3398 0.572394L53.5 0.572388L46.9226 23.2327L45.0001 22.6814L51.3398 0.572394Z" fill="black"/>
<path d="M915.34 1.00001L917.5 1L910.923 23.6603L909 23.109L915.34 1.00001Z" fill="black"/>
<path d="M924.34 0.572394L926.5 0.572388L919.923 23.2327L918 22.6814L924.34 0.572394Z" fill="black"/>
<path d="M933.34 0.572394L935.5 0.572388L928.923 23.2327L927 22.6814L933.34 0.572394Z" fill="black"/>
<path d="M942.34 0.572394L944.5 0.572388L937.923 23.2327L936 22.6814L942.34 0.572394Z" fill="black"/>
<path d="M951.34 0.572394L953.5 0.572388L946.923 23.2327L945 22.6814L951.34 0.572394Z" fill="black"/>
<path d="M960.34 0.572394L962.5 0.572388L955.923 23.2327L954 22.6814L960.34 0.572394Z" fill="black"/>
<path d="M969.34 0.572394L971.5 0.572388L964.923 23.2327L963 22.6814L969.34 0.572394Z" fill="black"/>
<path d="M60.3398 0.572394L62.5 0.572388L55.9226 23.2327L54.0001 22.6814L60.3398 0.572394Z" fill="black"/>
<path d="M69.3398 0.572394L71.5 0.572388L64.9226 23.2327L63.0001 22.6814L69.3398 0.572394Z" fill="black"/>
<path d="M78.3398 1.00001L80.5 1L73.9226 23.6603L72.0001 23.109L78.3398 1.00001Z" fill="black"/>
<path d="M87.3398 0.572394L89.5 0.572388L82.9226 23.2327L81.0001 22.6814L87.3398 0.572394Z" fill="black"/>
<path d="M96.3398 0.572394L98.5 0.572388L91.9226 23.2327L90.0001 22.6814L96.3398 0.572394Z" fill="black"/>
<path d="M105.34 0.572394L107.5 0.572388L100.923 23.2327L99.0001 22.6814L105.34 0.572394Z" fill="black"/>
<path d="M114.34 0.572394L116.5 0.572388L109.923 23.2327L108 22.6814L114.34 0.572394Z" fill="black"/>
<path d="M123.34 0.572394L125.5 0.572388L118.923 23.2327L117 22.6814L123.34 0.572394Z" fill="black"/>
<path d="M132.34 0.572394L134.5 0.572388L127.923 23.2327L126 22.6814L132.34 0.572394Z" fill="black"/>
<path d="M141.34 0.572394L143.5 0.572388L136.923 23.2327L135 22.6814L141.34 0.572394Z" fill="black"/>
<path d="M150.34 0.572394L152.5 0.572388L145.923 23.2327L144 22.6814L150.34 0.572394Z" fill="black"/>
<path d="M159.34 1.00001L161.5 1L154.923 23.6603L153 23.109L159.34 1.00001Z" fill="black"/>
<path d="M168.34 0.572394L170.5 0.572388L163.923 23.2327L162 22.6814L168.34 0.572394Z" fill="black"/>
<path d="M177.34 0.572394L179.5 0.572388L172.923 23.2327L171 22.6814L177.34 0.572394Z" fill="black"/>
<path d="M186.34 0.572394L188.5 0.572388L181.923 23.2327L180 22.6814L186.34 0.572394Z" fill="black"/>
<path d="M195.34 0.572394L197.5 0.572388L190.923 23.2327L189 22.6814L195.34 0.572394Z" fill="black"/>
<path d="M204.34 0.572394L206.5 0.572388L199.923 23.2327L198 22.6814L204.34 0.572394Z" fill="black"/>
<path d="M213.34 0.572394L215.5 0.572388L208.923 23.2327L207 22.6814L213.34 0.572394Z" fill="black"/>
<path d="M222.34 0.572394L224.5 0.572388L217.923 23.2327L216 22.6814L222.34 0.572394Z" fill="black"/>
<path d="M231.34 0.572394L233.5 0.572388L226.923 23.2327L225 22.6814L231.34 0.572394Z" fill="black"/>
<path d="M240.34 1.00001L242.5 1L235.923 23.6603L234 23.109L240.34 1.00001Z" fill="black"/>
<path d="M249.34 0.572394L251.5 0.572388L244.923 23.2327L243 22.6814L249.34 0.572394Z" fill="black"/>
<path d="M258.34 0.572394L260.5 0.572388L253.923 23.2327L252 22.6814L258.34 0.572394Z" fill="black"/>
<path d="M267.34 0.572394L269.5 0.572388L262.923 23.2327L261 22.6814L267.34 0.572394Z" fill="black"/>
<path d="M276.34 0.572394L278.5 0.572388L271.923 23.2327L270 22.6814L276.34 0.572394Z" fill="black"/>
<path d="M285.34 0.572394L287.5 0.572388L280.923 23.2327L279 22.6814L285.34 0.572394Z" fill="black"/>
<path d="M294.34 0.572394L296.5 0.572388L289.923 23.2327L288 22.6814L294.34 0.572394Z" fill="black"/>
<path d="M303.34 0.572394L305.5 0.572388L298.923 23.2327L297 22.6814L303.34 0.572394Z" fill="black"/>
<path d="M312.34 0.572394L314.5 0.572388L307.923 23.2327L306 22.6814L312.34 0.572394Z" fill="black"/>
<path d="M321.34 1.00001L323.5 1L316.923 23.6603L315 23.109L321.34 1.00001Z" fill="black"/>
<path d="M330.34 0.572394L332.5 0.572388L325.923 23.2327L324 22.6814L330.34 0.572394Z" fill="black"/>
<path d="M339.34 0.572394L341.5 0.572388L334.923 23.2327L333 22.6814L339.34 0.572394Z" fill="black"/>
<path d="M348.34 0.572394L350.5 0.572388L343.923 23.2327L342 22.6814L348.34 0.572394Z" fill="black"/>
<path d="M357.34 0.572394L359.5 0.572388L352.923 23.2327L351 22.6814L357.34 0.572394Z" fill="black"/>
<path d="M366.34 0.572394L368.5 0.572388L361.923 23.2327L360 22.6814L366.34 0.572394Z" fill="black"/>
<path d="M375.34 0.572394L377.5 0.572388L370.923 23.2327L369 22.6814L375.34 0.572394Z" fill="black"/>
<path d="M384.34 0.572394L386.5 0.572388L379.923 23.2327L378 22.6814L384.34 0.572394Z" fill="black"/>
<path d="M393.34 0.572394L395.5 0.572388L388.923 23.2327L387 22.6814L393.34 0.572394Z" fill="black"/>
<path d="M402.34 1.00001L404.5 1L397.923 23.6603L396 23.109L402.34 1.00001Z" fill="black"/>
<path d="M411.34 0.572394L413.5 0.572388L406.923 23.2327L405 22.6814L411.34 0.572394Z" fill="black"/>
<path d="M420.34 0.572394L422.5 0.572388L415.923 23.2327L414 22.6814L420.34 0.572394Z" fill="black"/>
<path d="M429.34 0.572394L431.5 0.572388L424.923 23.2327L423 22.6814L429.34 0.572394Z" fill="black"/>
<path d="M438.34 0.572394L440.5 0.572388L433.923 23.2327L432 22.6814L438.34 0.572394Z" fill="black"/>
<path d="M447.34 0.572394L449.5 0.572388L442.923 23.2327L441 22.6814L447.34 0.572394Z" fill="black"/>
<path d="M456.34 0.572394L458.5 0.572388L451.923 23.2327L450 22.6814L456.34 0.572394Z" fill="black"/>
<path d="M465.34 0.572394L467.5 0.572388L460.923 23.2327L459 22.6814L465.34 0.572394Z" fill="black"/>
<path d="M474.34 0.572394L476.5 0.572388L469.923 23.2327L468 22.6814L474.34 0.572394Z" fill="black"/>
<path d="M483.34 1.00001L485.5 1L478.923 23.6603L477 23.109L483.34 1.00001Z" fill="black"/>
<path d="M492.34 0.572394L494.5 0.572388L487.923 23.2327L486 22.6814L492.34 0.572394Z" fill="black"/>
<path d="M501.34 0.572394L503.5 0.572388L496.923 23.2327L495 22.6814L501.34 0.572394Z" fill="black"/>
<path d="M510.34 0.572394L512.5 0.572388L505.923 23.2327L504 22.6814L510.34 0.572394Z" fill="black"/>
<path d="M519.34 0.572394L521.5 0.572388L514.923 23.2327L513 22.6814L519.34 0.572394Z" fill="black"/>
<path d="M528.34 0.572394L530.5 0.572388L523.923 23.2327L522 22.6814L528.34 0.572394Z" fill="black"/>
<path d="M537.34 0.572394L539.5 0.572388L532.923 23.2327L531 22.6814L537.34 0.572394Z" fill="black"/>
<path d="M546.34 0.572394L548.5 0.572388L541.923 23.2327L540 22.6814L546.34 0.572394Z" fill="black"/>
<path d="M555.34 0.572394L557.5 0.572388L550.923 23.2327L549 22.6814L555.34 0.572394Z" fill="black"/>
<path d="M564.34 1.00001L566.5 1L559.923 23.6603L558 23.109L564.34 1.00001Z" fill="black"/>
<path d="M573.34 0.572394L575.5 0.572388L568.923 23.2327L567 22.6814L573.34 0.572394Z" fill="black"/>
<path d="M582.34 0.572394L584.5 0.572388L577.923 23.2327L576 22.6814L582.34 0.572394Z" fill="black"/>
<path d="M591.34 0.572394L593.5 0.572388L586.923 23.2327L585 22.6814L591.34 0.572394Z" fill="black"/>
<path d="M600.34 0.572394L602.5 0.572388L595.923 23.2327L594 22.6814L600.34 0.572394Z" fill="black"/>
<path d="M609.34 0.572394L611.5 0.572388L604.923 23.2327L603 22.6814L609.34 0.572394Z" fill="black"/>
<path d="M618.34 0.572394L620.5 0.572388L613.923 23.2327L612 22.6814L618.34 0.572394Z" fill="black"/>
<path d="M627.34 0.572394L629.5 0.572388L622.923 23.2327L621 22.6814L627.34 0.572394Z" fill="black"/>
<path d="M636.34 0.572394L638.5 0.572388L631.923 23.2327L630 22.6814L636.34 0.572394Z" fill="black"/>
<path d="M645.34 0.572394L647.5 0.572388L640.923 23.2327L639 22.6814L645.34 0.572394Z" fill="black"/>
<path d="M654.34 0.572394L656.5 0.572388L649.923 23.2327L648 22.6814L654.34 0.572394Z" fill="black"/>
<path d="M663.34 0.572394L665.5 0.572388L658.923 23.2327L657 22.6814L663.34 0.572394Z" fill="black"/>
<path d="M672.34 1.00001L674.5 1L667.923 23.6603L666 23.109L672.34 1.00001Z" fill="black"/>
<path d="M681.34 0.572394L683.5 0.572388L676.923 23.2327L675 22.6814L681.34 0.572394Z" fill="black"/>
<path d="M690.34 0.572394L692.5 0.572388L685.923 23.2327L684 22.6814L690.34 0.572394Z" fill="black"/>
<path d="M699.34 0.572394L701.5 0.572388L694.923 23.2327L693 22.6814L699.34 0.572394Z" fill="black"/>
<path d="M708.34 0.572394L710.5 0.572388L703.923 23.2327L702 22.6814L708.34 0.572394Z" fill="black"/>
<path d="M717.34 0.572394L719.5 0.572388L712.923 23.2327L711 22.6814L717.34 0.572394Z" fill="black"/>
<path d="M726.34 0.572394L728.5 0.572388L721.923 23.2327L720 22.6814L726.34 0.572394Z" fill="black"/>
<path d="M735.34 0.572394L737.5 0.572388L730.923 23.2327L729 22.6814L735.34 0.572394Z" fill="black"/>
<path d="M744.34 0.572394L746.5 0.572388L739.923 23.2327L738 22.6814L744.34 0.572394Z" fill="black"/>
<path d="M753.34 1.00001L755.5 1L748.923 23.6603L747 23.109L753.34 1.00001Z" fill="black"/>
<path d="M762.34 0.572394L764.5 0.572388L757.923 23.2327L756 22.6814L762.34 0.572394Z" fill="black"/>
<path d="M771.34 0.572394L773.5 0.572388L766.923 23.2327L765 22.6814L771.34 0.572394Z" fill="black"/>
<path d="M780.34 0.572394L782.5 0.572388L775.923 23.2327L774 22.6814L780.34 0.572394Z" fill="black"/>
<path d="M789.34 0.572394L791.5 0.572388L784.923 23.2327L783 22.6814L789.34 0.572394Z" fill="black"/>
<path d="M798.34 0.572394L800.5 0.572388L793.923 23.2327L792 22.6814L798.34 0.572394Z" fill="black"/>
<path d="M807.34 0.572394L809.5 0.572388L802.923 23.2327L801 22.6814L807.34 0.572394Z" fill="black"/>
<path d="M816.34 0.572394L818.5 0.572388L811.923 23.2327L810 22.6814L816.34 0.572394Z" fill="black"/>
<path d="M825.34 0.572394L827.5 0.572388L820.923 23.2327L819 22.6814L825.34 0.572394Z" fill="black"/>
<path d="M834.34 1.00001L836.5 1L829.923 23.6603L828 23.109L834.34 1.00001Z" fill="black"/>
<path d="M843.34 0.572394L845.5 0.572388L838.923 23.2327L837 22.6814L843.34 0.572394Z" fill="black"/>
<path d="M852.34 0.572394L854.5 0.572388L847.923 23.2327L846 22.6814L852.34 0.572394Z" fill="black"/>
<path d="M861.34 0.572394L863.5 0.572388L856.923 23.2327L855 22.6814L861.34 0.572394Z" fill="black"/>
<path d="M870.34 0.572394L872.5 0.572388L865.923 23.2327L864 22.6814L870.34 0.572394Z" fill="black"/>
<path d="M879.34 0.572394L881.5 0.572388L874.923 23.2327L873 22.6814L879.34 0.572394Z" fill="black"/>
<path d="M888.34 0.572394L890.5 0.572388L883.923 23.2327L882 22.6814L888.34 0.572394Z" fill="black"/>
<path d="M897.34 0.572394L899.5 0.572388L892.923 23.2327L891 22.6814L897.34 0.572394Z" fill="black"/>
<path d="M906.34 0.572394L908.5 0.572388L901.923 23.2327L900 22.6814L906.34 0.572394Z" fill="black"/>
<path d="M1032.34 1.00001L1034.5 1L1027.92 23.6603L1026 23.109L1032.34 1.00001Z" fill="black"/>
<path d="M1041.34 0.572394L1043.5 0.572388L1036.92 23.2327L1035 22.6814L1041.34 0.572394Z" fill="black"/>
<path d="M1050.34 0.572394L1052.5 0.572388L1045.92 23.2327L1044 22.6814L1050.34 0.572394Z" fill="black"/>
<path d="M1059.34 0.572394L1061.5 0.572388L1054.92 23.2327L1053 22.6814L1059.34 0.572394Z" fill="black"/>
<path d="M1068.34 0.572394L1070.5 0.572388L1063.92 23.2327L1062 22.6814L1068.34 0.572394Z" fill="black"/>
<path d="M978.34 0.572394L980.5 0.572388L973.923 23.2327L972 22.6814L978.34 0.572394Z" fill="black"/>
<path d="M987.34 0.572394L989.5 0.572388L982.923 23.2327L981 22.6814L987.34 0.572394Z" fill="black"/>
<path d="M996.34 0.572394L998.5 0.572388L991.923 23.2327L990 22.6814L996.34 0.572394Z" fill="black"/>
<path d="M1005.34 0.572394L1007.5 0.572388L1000.92 23.2327L999 22.6814L1005.34 0.572394Z" fill="black"/>
<path d="M1014.34 0.572394L1016.5 0.572388L1009.92 23.2327L1008 22.6814L1014.34 0.572394Z" fill="black"/>
<path d="M1023.34 0.572394L1025.5 0.572388L1018.92 23.2327L1017 22.6814L1023.34 0.572394Z" fill="black"/>
</svg>
