<svg width="112" height="73" viewBox="0 0 112 73" fill="none" xmlns="http://www.w3.org/2000/svg">
<path d="M4.50523 51.9615L10.2741 67.8687L16.0293 51.9615H20.5208V72.7149H17.0594V65.8732L17.4028 56.7223L11.4966 72.7149H9.01046L3.11795 56.7365L3.46133 65.8732V72.7149H0V51.9615H4.50523Z" fill="black"/>
<path d="M31.7075 73C29.5922 73 27.8753 72.3111 26.5567 70.9332C25.2472 69.5459 24.5925 67.7024 24.5925 65.4028V64.9752C24.5925 63.4358 24.8764 62.0627 25.4441 60.8559C26.021 59.6395 26.8268 58.694 27.8615 58.0194C28.8963 57.3447 30.0501 57.0074 31.3229 57.0074C33.3466 57.0074 34.9078 57.6773 36.0067 59.0171C37.1147 60.357 37.6687 62.2527 37.6687 64.7044V66.1012H27.9577C28.0584 67.3745 28.4659 68.3818 29.1802 69.123C29.9036 69.8642 30.8101 70.2348 31.8998 70.2348C33.429 70.2348 34.6743 69.5934 35.6358 68.3105L37.4352 70.0923C36.84 71.014 36.0433 71.7314 35.0452 72.2446C34.0562 72.7482 32.9437 73 31.7075 73ZM31.3091 59.7868C30.3935 59.7868 29.6517 60.1194 29.084 60.7846C28.5254 61.4498 28.1683 62.3763 28.0126 63.5641H34.3722V63.3075C34.2989 62.1482 34.0013 61.274 33.4794 60.6848C32.9574 60.0862 32.234 59.7868 31.3091 59.7868Z" fill="black"/>
<path d="M48.8966 60.4568C48.457 60.3807 48.0038 60.3427 47.5368 60.3427C46.0075 60.3427 44.9774 60.9509 44.4463 62.1672V72.7149H41.1086V57.2924H44.2952L44.3776 59.0171C45.1834 57.6773 46.3006 57.0074 47.7291 57.0074C48.2052 57.0074 48.599 57.0739 48.9103 57.2069L48.8966 60.4568Z" fill="black"/>
<path d="M55.3995 72.7149H52.0618V50.8212H55.3995V72.7149Z" fill="black"/>
<path d="M63.4408 72.7149H60.1031V57.2924H63.4408V72.7149Z" fill="black"/>
<path d="M71.0288 57.2924L71.1249 59.0741C72.2238 57.6963 73.666 57.0074 75.4516 57.0074C78.5467 57.0074 80.1217 58.8461 80.1766 62.5235V72.7149H76.8389V62.7231C76.8389 61.7443 76.6329 61.0222 76.2208 60.5565C75.8179 60.0814 75.154 59.8438 74.2291 59.8438C72.8831 59.8438 71.8804 60.4758 71.2211 61.7396V72.7149H67.8834V57.2924H71.0288Z" fill="black"/>
<path d="M90.9787 73C88.8634 73 87.1465 72.3111 85.8279 70.9332C84.5185 69.5459 83.8637 67.7024 83.8637 65.4028V64.9752C83.8637 63.4358 84.1476 62.0627 84.7153 60.8559C85.2922 59.6395 86.098 58.694 87.1328 58.0194C88.1675 57.3447 89.3213 57.0074 90.5941 57.0074C92.6178 57.0074 94.1791 57.6773 95.2779 59.0171C96.3859 60.357 96.9399 62.2527 96.9399 64.7044V66.1012H87.2289C87.3297 67.3745 87.7371 68.3818 88.4514 69.123C89.1748 69.8642 90.0813 70.2348 91.171 70.2348C92.7002 70.2348 93.9456 69.5934 94.9071 68.3105L96.7064 70.0923C96.1112 71.014 95.3145 71.7314 94.3164 72.2446C93.3275 72.7482 92.2149 73 90.9787 73ZM90.5804 59.7868C89.6647 59.7868 88.923 60.1194 88.3552 60.7846C87.7967 61.4498 87.4395 62.3763 87.2839 63.5641H93.6434V63.3075C93.5701 62.1482 93.2725 61.274 92.7506 60.6848C92.2286 60.0862 91.5052 59.7868 90.5804 59.7868Z" fill="black"/>
<path d="M108.717 68.5243C108.717 67.9067 108.47 67.4363 107.976 67.1132C107.49 66.7901 106.68 66.5051 105.544 66.258C104.409 66.0109 103.461 65.6974 102.701 65.3173C101.035 64.481 100.201 63.2695 100.201 61.6826C100.201 60.3522 100.742 59.2404 101.822 58.3472C102.903 57.454 104.276 57.0074 105.943 57.0074C107.719 57.0074 109.152 57.4635 110.242 58.3757C111.341 59.288 111.89 60.471 111.89 61.9249H108.552C108.552 61.2597 108.314 60.7086 107.838 60.2715C107.362 59.8248 106.73 59.6015 105.943 59.6015C105.21 59.6015 104.61 59.7773 104.143 60.1289C103.685 60.4805 103.457 60.9509 103.457 61.54C103.457 62.0722 103.672 62.4855 104.102 62.7801C104.532 63.0747 105.402 63.374 106.712 63.6781C108.021 63.9727 109.047 64.329 109.789 64.7471C110.539 65.1557 111.093 65.6499 111.451 66.2295C111.817 66.8092 112 67.5123 112 68.3391C112 69.7264 111.446 70.8525 110.338 71.7172C109.23 72.5724 107.779 73 105.984 73C104.766 73 103.681 72.772 102.729 72.3158C101.776 71.8597 101.035 71.2326 100.503 70.4343C99.9723 69.6361 99.7068 68.7762 99.7068 67.8544H102.948C102.994 68.6716 103.292 69.3036 103.841 69.7502C104.391 70.1873 105.119 70.4058 106.025 70.4058C106.904 70.4058 107.573 70.2348 108.03 69.8927C108.488 69.5411 108.717 69.085 108.717 68.5243Z" fill="black"/>
<path d="M65.7812 42.6708C64.4657 40.9243 62.2105 40.9243 62.2105 40.9243C59.5795 40.9243 57.3244 43.2529 57.1364 46.0667C57.0425 48.8806 61.7407 56.0606 61.7407 56.0606C61.7407 56.0606 63.62 53.6349 65.4053 50.8211C67.1907 48.0073 67.0967 46.0667 67.0967 46.0667C67.0967 46.0667 67.0967 44.4173 65.7812 42.6708ZM62.1166 48.5895C59.2037 48.5895 59.2037 43.9321 62.1166 43.9321C65.0295 43.9321 65.0295 48.5895 62.1166 48.5895Z" fill="black"/>
<mask id="mask0" mask-type="alpha" maskUnits="userSpaceOnUse" x="5" y="0" width="48" height="48">
<path d="M52.4878 23.5774C52.4878 36.5838 42.0438 47.1547 29.1936 47.1547C16.3434 47.1547 5.89941 36.5838 5.89941 23.5774C5.89941 10.5709 16.3434 0 29.1936 0C42.0438 0 52.4878 10.5709 52.4878 23.5774Z" fill="#BEF025"/>
</mask>
<g mask="url(#mask0)">
<path d="M52.4878 23.5774C52.4878 36.5838 42.0438 47.1547 29.1936 47.1547C16.3434 47.1547 5.89941 36.5838 5.89941 23.5774C5.89941 10.5709 16.3434 0 29.1936 0C42.0438 0 52.4878 10.5709 52.4878 23.5774Z" fill="black"/>
<path d="M26.6856 0L44.2971 8.49821L49.5702 7.15093L52.0277 13.8355L50.6966 14.561L4.26172 27.0492L4.82488 19.0692L38.4095 10.0528L18.8526 0.570005L26.6856 0Z" fill="white"/>
<path d="M6.36035 18.7584L38.4091 10.0529L20.8488 1.45105C20.8488 1.45105 9.43212 5.13015 6.36035 18.7584Z" fill="black"/>
</g>
</svg>
