<svg width="23" height="23" viewBox="0 0 23 23" fill="none" xmlns="http://www.w3.org/2000/svg">
<path d="M11.5 0.497314C14.5346 0.497314 17 2.96131 17 5.99732C17 9.03194 14.5346 11.4973 11.5 11.4973C8.46262 11.4973 6 9.03194 6 5.99732C6 2.96131 8.46262 0.497314 11.5 0.497314ZM11.5 3.24732C9.98337 3.24732 8.75 4.48069 8.75 5.99732C8.75 7.51394 9.98337 8.74732 11.5 8.74732C13.0152 8.74732 14.25 7.51394 14.25 5.99732C14.25 4.48069 13.0152 3.24732 11.5 3.24732ZM11.5 12.8723C15.1657 12.8723 22.5 14.7079 22.5 18.3723V22.4973H0.5V18.3723C0.5 14.7079 7.8315 12.8723 11.5 12.8723ZM11.5 15.4848C7.40937 15.4848 3.1125 17.4882 3.1125 18.3723V19.8848H19.8875V18.3723C19.8875 17.4882 15.5879 15.4848 11.5 15.4848Z" fill="#2B2B2B"/>
</svg>
