<svg width="33" height="25" viewBox="0 0 33 25" fill="none" xmlns="http://www.w3.org/2000/svg">
<path d="M30.25 0.125H2.75C2.02829 0.14902 1.34268 0.446461 0.832072 0.957072C0.321461 1.46768 0.0240197 2.15329 0 2.875L0 22.125C0.0240197 22.8467 0.321461 23.5323 0.832072 24.0429C1.34268 24.5535 2.02829 24.851 2.75 24.875H30.25C30.9717 24.851 31.6573 24.5535 32.1679 24.0429C32.6785 23.5323 32.976 22.8467 33 22.125V2.875C32.976 2.15329 32.6785 1.46768 32.1679 0.957072C31.6573 0.446461 30.9717 0.14902 30.25 0.125ZM30.25 22.125H2.75V2.875H30.25V22.125ZM19.25 19.375V17.6562C19.25 15.3737 14.6575 14.2188 12.375 14.2188C10.0925 14.2188 5.5 15.3737 5.5 17.6562V19.375H19.25ZM12.375 5.625C11.4633 5.625 10.589 5.98716 9.94432 6.63182C9.29966 7.27648 8.9375 8.15082 8.9375 9.0625C8.9375 9.97418 9.29966 10.8485 9.94432 11.4932C10.589 12.1378 11.4633 12.5 12.375 12.5C13.2867 12.5 14.161 12.1378 14.8057 11.4932C15.4503 10.8485 15.8125 9.97418 15.8125 9.0625C15.8125 8.15082 15.4503 7.27648 14.8057 6.63182C14.161 5.98716 13.2867 5.625 12.375 5.625ZM19.25 5.625V7H27.5V5.625H19.25ZM19.25 8.375V9.75H27.5V8.375H19.25ZM19.25 11.125V12.5H24.75V11.125H19.25Z" fill="#2B2B2B"/>
</svg>
