<svg width="44" height="44" viewBox="0 0 44 44" fill="none" xmlns="http://www.w3.org/2000/svg">
<rect width="44" height="44" rx="4" fill="#F6861F"/>
<g clip-path="url(#clip0)">
<path d="M20.8188 26.9048C18.9582 26.7108 17.2806 26.2526 15.8444 25.1292C15.6662 24.9895 15.4822 24.8548 15.3195 24.6987C14.6909 24.0949 14.6275 23.4034 15.125 22.6908C15.5505 22.081 16.2649 21.9179 17.0074 22.268C17.1512 22.3359 17.2882 22.4206 17.4194 22.5116C20.0961 24.3508 23.7732 24.4016 26.46 22.5943C26.7262 22.3902 27.0107 22.2238 27.3405 22.1388C27.9817 21.9742 28.5797 22.2097 28.9238 22.7707C29.317 23.4115 29.3119 24.0368 28.8276 24.5343C28.0845 25.2969 27.191 25.8486 26.1981 26.2337C25.2593 26.5977 24.231 26.7809 23.2132 26.9026C23.3668 27.0697 23.4392 27.1519 23.5352 27.2485C24.9172 28.637 26.3052 30.0197 27.6826 31.4125C28.1519 31.887 28.2499 32.4755 27.9915 33.0274C27.709 33.6307 27.0766 34.0276 26.4565 33.9851C26.0636 33.958 25.7572 33.7624 25.485 33.4882C24.4421 32.4388 23.3796 31.4087 22.3578 30.3394C22.0605 30.0285 21.9175 30.0873 21.655 30.3573C20.6059 31.4374 19.5396 32.5009 18.467 33.5583C17.9854 34.0331 17.4123 34.1186 16.8538 33.8474C16.2601 33.5596 15.8823 32.9535 15.9115 32.3445C15.9316 31.9325 16.1342 31.6178 16.417 31.3356C17.7846 29.9699 19.1485 28.6008 20.5129 27.2329C20.6031 27.1419 20.6873 27.0454 20.8188 26.9048Z" fill="white"/>
<path d="M21.9521 22.1479C18.6329 22.1365 15.9112 19.3849 15.9305 16.0604C15.9496 12.6993 18.6731 9.99063 22.025 9.99993C25.3836 10.009 28.0795 12.7566 28.0626 16.1527C28.0455 19.4704 25.305 22.1594 21.9521 22.1479ZM24.9686 16.0685C24.9629 14.4178 23.6482 13.1037 22.0008 13.1022C20.3396 13.1004 19.0132 14.4384 19.026 16.1042C19.0383 17.7486 20.3642 19.0534 22.0162 19.0473C23.6631 19.0416 24.9742 17.7189 24.9686 16.0685Z" fill="white"/>
</g>
<defs>
<clipPath id="clip0">
<rect width="24" height="24" fill="white" transform="translate(10 10)"/>
</clipPath>
</defs>
</svg>
