<svg width="50" height="44" viewBox="0 0 50 44" fill="none" xmlns="http://www.w3.org/2000/svg">
<path d="M49.9519 18.8655L44.1898 1.13343C44.023 0.620644 43.4722 0.339982 42.9591 0.506484L0.674981 14.2472C0.162096 14.4139 -0.118566 14.9648 0.0480343 15.4778L2.77555 23.8712C2.77477 23.8876 2.77311 23.9037 2.77311 23.9203V42.5652C2.77311 43.1044 3.21041 43.5417 3.74966 43.5417H48.2104C48.7497 43.5417 49.187 43.1044 49.187 42.5652V23.9203C49.187 23.3811 48.7497 22.9438 48.2104 22.9438H40.5621L49.3251 20.0961C49.8379 19.9294 50.1185 19.3785 49.9519 18.8655ZM47.2338 24.8969V41.5886H4.72611V24.8969H10.1354V35.7765C10.1354 36.3157 10.5727 36.753 11.112 36.753C11.6512 36.753 12.0885 36.3157 12.0885 35.7765V24.8969H34.397H47.2338ZM34.2423 22.9438H4.52778L2.20729 15.8029L7.3548 14.1302L9.32372 20.1141C9.45898 20.525 9.84091 20.7857 10.2512 20.7857C10.3523 20.7857 10.4553 20.7699 10.5566 20.7365C11.0689 20.5678 11.3476 20.016 11.179 19.5036L9.2123 13.5265L42.634 2.66574L47.7927 18.5404L34.2423 22.9438Z" fill="#59D554"/>
<path d="M41.1523 6.94638C40.9855 6.43359 40.4346 6.15303 39.9216 6.31944L14.4601 14.5935C13.9473 14.7602 13.6666 15.3111 13.8332 15.8241C13.9674 16.2368 14.3501 16.4991 14.7618 16.4991C14.8618 16.4991 14.9636 16.4836 15.0638 16.4511L40.5253 8.17703C41.0382 8.01034 41.319 7.45937 41.1523 6.94638Z" fill="#59D554"/>
<path d="M36.8588 13.2896L41.6783 11.7235C42.1911 11.5568 42.4718 11.0058 42.3052 10.4928C42.1384 9.97993 41.5875 9.69937 41.0746 9.86587L36.2551 11.432C35.7422 11.5987 35.4615 12.1496 35.6281 12.6626C35.7623 13.0753 36.145 13.3376 36.5567 13.3376C36.6567 13.3376 36.7586 13.3221 36.8588 13.2896Z" fill="#59D554"/>
<path d="M40.9309 17.7753C41.0651 18.188 41.4478 18.4503 41.8595 18.4503C41.9594 18.4503 42.0612 18.4347 42.1615 18.4022L43.6866 17.9066C44.1995 17.7399 44.4803 17.1889 44.3136 16.676C44.1468 16.1631 43.596 15.8824 43.0829 16.049L41.5578 16.5446C41.0449 16.7113 40.7642 17.2623 40.9309 17.7753Z" fill="#59D554"/>
<path d="M24.524 15.2438L15.6125 18.1397C15.0996 18.3064 14.8189 18.8573 14.9856 19.3703C15.1197 19.783 15.5025 20.0453 15.9142 20.0453C16.0141 20.0453 16.1159 20.0298 16.2162 19.9973L25.1277 17.1014C25.6406 16.9347 25.9213 16.3837 25.7547 15.8707C25.5878 15.3579 25.0369 15.0773 24.524 15.2438Z" fill="#59D554"/>
<path d="M11.1113 38.0508C10.5721 38.0508 10.1348 38.4881 10.1348 39.0273V39.4098C10.1348 39.949 10.5721 40.3863 11.1113 40.3863C11.6506 40.3863 12.0879 39.949 12.0879 39.4098V39.0273C12.0879 38.4881 11.6506 38.0508 11.1113 38.0508Z" fill="#59D554"/>
<path d="M15.7773 28.5098C15.7773 29.049 16.2146 29.4863 16.7539 29.4863H43.5259C44.0652 29.4863 44.5025 29.049 44.5025 28.5098C44.5025 27.9705 44.0652 27.5332 43.5259 27.5332H16.7539C16.2146 27.5332 15.7773 27.9704 15.7773 28.5098Z" fill="#59D554"/>
<path d="M43.5246 31.2622H38.457C37.9178 31.2622 37.4805 31.6995 37.4805 32.2388C37.4805 32.778 37.9178 33.2153 38.457 33.2153H43.5246C44.0639 33.2153 44.5012 32.778 44.5012 32.2388C44.5012 31.6995 44.0639 31.2622 43.5246 31.2622Z" fill="#59D554"/>
<path d="M43.5256 37.7642H41.9219C41.3826 37.7642 40.9453 38.2015 40.9453 38.7407C40.9453 39.28 41.3826 39.7173 41.9219 39.7173H43.5256C44.0648 39.7173 44.5021 39.28 44.5021 38.7407C44.5021 38.2015 44.0648 37.7642 43.5256 37.7642Z" fill="#59D554"/>
<path d="M26.1241 31.2622H16.7539C16.2146 31.2622 15.7773 31.6995 15.7773 32.2388C15.7773 32.778 16.2146 33.2153 16.7539 33.2153H26.1241C26.6634 33.2153 27.1007 32.778 27.1007 32.2388C27.1007 31.6995 26.6634 31.2622 26.1241 31.2622Z" fill="#59D554"/>
</svg>
