<svg width="35" height="35" viewBox="0 0 35 35" fill="none" xmlns="http://www.w3.org/2000/svg">
<g clip-path="url(#clip0)">
<path d="M17.5017 35.0007C27.1663 35.0007 35.001 27.166 35.001 17.5015C35.001 7.83688 27.1663 0.00219727 17.5017 0.00219727C7.83713 0.00219727 0.00244141 7.83688 0.00244141 17.5015C0.00244141 27.166 7.83713 35.0007 17.5017 35.0007Z" fill="white"/>
<path d="M33.9996 11.665H23.2173C23.6857 15.4033 23.6884 19.5224 23.2264 23.2653H34.0226C34.6529 21.4596 34.9993 19.5205 34.9993 17.5C34.9996 15.4531 34.6451 13.4901 33.9996 11.665Z" fill="#2B479D"/>
<path d="M23.2175 11.6651H33.9996C33.9979 11.6596 33.9962 11.6549 33.994 11.6499C31.7545 5.33478 25.9933 0.688533 19.0713 0.0717773C21.7502 1.54011 22.5327 6.1922 23.2175 11.6651Z" fill="#EFECEC"/>
<path d="M19.0718 34.9275C26.0062 34.3097 31.7754 29.6474 34.0063 23.3154C34.0122 23.2985 34.0171 23.2819 34.0232 23.2656H23.2267C22.5472 28.7682 21.7614 33.4531 19.0718 34.9275Z" fill="#E63026"/>
<path d="M0 17.5C0 19.5208 0.347059 21.4596 0.976746 23.2653H24.1273C24.5899 19.5221 24.5865 15.4033 24.1187 11.665H1.00002C0.354522 13.4902 0 15.4531 0 17.5Z" fill="#3757A6"/>
<path d="M1.00554 11.6499C1.00392 11.6549 1.00222 11.6596 1 11.6652H24.1188C23.4335 6.19216 21.7502 1.54015 19.0716 0.0718206C18.5535 0.0259352 18.0296 8.42182e-10 17.4997 8.42182e-10C9.88692 -7.38887e-05 3.41308 4.86193 1.00554 11.6499Z" fill="#EFEFEF"/>
<path d="M24.1274 23.2654H0.976807C0.982644 23.2817 0.988112 23.2983 0.993653 23.3151C3.39159 30.1205 9.87474 34.9997 17.4997 34.9997C18.0297 34.9997 18.5536 34.9737 19.0716 34.9273C21.7616 33.4529 23.4479 28.768 24.1274 23.2654Z" fill="#E73B36"/>
</g>
<defs>
<clipPath id="clip0">
<rect width="35" height="35" fill="white"/>
</clipPath>
</defs>
</svg>
