<svg width="74" height="40" viewBox="0 0 74 40" fill="none" xmlns="http://www.w3.org/2000/svg">
<path d="M67.7869 6.56578H63.2386C63.1995 5.95383 62.6923 5.46922 62.0705 5.46922H62.0102V2.95617C62.0101 1.32617 60.6703 0 59.0235 0H48.9762C47.3294 0 45.9895 1.32617 45.9895 2.95617V5.46922H45.9291C45.3074 5.46922 44.8001 5.95383 44.7611 6.56578H40.2127C36.8204 6.56578 34.0605 9.32562 34.0605 12.718V34.9747C34.0605 37.7457 36.3149 40 39.0859 40H68.9139C71.6848 40 73.9391 37.7457 73.9391 34.9747V12.718C73.9391 9.32562 71.1792 6.56578 67.7869 6.56578ZM54.7297 8.90953C55.7755 9.11828 56.6852 9.71094 57.298 10.5879C57.928 11.4897 58.1694 12.583 57.9773 13.6662C57.9015 14.0935 57.7616 14.4985 57.562 14.8753L54.2691 15.2532C53.9324 15.2919 53.6291 15.4742 53.4371 15.7534L48.6135 22.7668C48.4374 23.0228 48.3702 23.3384 48.4267 23.6441C48.4832 23.9498 48.6589 24.2203 48.915 24.3965L53.7256 27.7051C53.9285 27.8446 54.1598 27.9115 54.3886 27.9115C54.7614 27.9115 55.128 27.7341 55.3552 27.4036L60.1788 20.3902C60.3708 20.1111 60.4326 19.7625 60.3482 19.4345L59.514 16.1891C59.8927 15.5367 60.1516 14.8273 60.285 14.0755C60.5864 12.3759 60.2079 10.6605 59.2191 9.24555C59.1384 9.13 59.0531 9.01883 58.966 8.90969H63.1977V37.6562H44.802V8.90953H54.7297ZM57.9456 19.5013L54.0882 25.1098L51.2087 23.1294L55.0661 17.5209L57.3686 17.2566L57.9456 19.5013ZM48.3334 2.95617C48.3334 2.60703 48.6097 2.34375 48.9762 2.34375H59.0235C59.39 2.34375 59.6664 2.60703 59.6664 2.95617V5.46922H59.6059C58.9842 5.46922 58.4769 5.95383 58.4379 6.56578H49.5619C49.5229 5.95383 49.0155 5.46922 48.3938 5.46922H48.3334V2.95617ZM36.4043 34.9747V12.718C36.4043 10.618 38.1127 8.90953 40.2127 8.90953H42.4582V37.6562H39.0859C37.6073 37.6562 36.4043 36.4534 36.4043 34.9747ZM71.5954 34.9747C71.5954 36.4534 70.3925 37.6562 68.9139 37.6562H65.5415V8.90953H67.7869C69.8869 8.90953 71.5954 10.618 71.5954 12.718V34.9747Z" fill="#59D554"/>
<g clip-path="url(#clip0)">
<path d="M16.9775 11.0681C16.8466 11.068 16.7169 11.0937 16.5958 11.1437C16.4748 11.1938 16.3649 11.2672 16.2722 11.3598C16.1796 11.4524 16.1062 11.5624 16.0561 11.6834C16.0061 11.8045 15.9804 11.9342 15.9805 12.0651L15.9735 18.9736L9.05795 18.9736C8.92702 18.9736 8.79737 18.9993 8.67641 19.0495C8.55544 19.0996 8.44553 19.173 8.35295 19.2656C8.26037 19.3582 8.18693 19.4681 8.13682 19.589C8.08672 19.71 8.06093 19.8397 8.06093 19.9706C8.06093 20.1015 8.08672 20.2312 8.13682 20.3521C8.18693 20.4731 8.26037 20.583 8.35295 20.6756C8.44553 20.7682 8.55544 20.8416 8.67641 20.8917C8.79737 20.9418 8.92702 20.9676 9.05795 20.9676L15.9735 20.9676L15.9735 27.8831C15.9735 28.014 15.9992 28.1437 16.0493 28.2646C16.0995 28.3856 16.1729 28.4955 16.2655 28.5881C16.3581 28.6807 16.468 28.7541 16.5889 28.8042C16.7099 28.8543 16.8395 28.8801 16.9705 28.8801C17.1014 28.8801 17.2311 28.8543 17.352 28.8042C17.473 28.7541 17.5829 28.6807 17.6755 28.5881C17.7681 28.4955 17.8415 28.3856 17.8916 28.2646C17.9417 28.1437 17.9675 28.014 17.9675 27.8831L17.9675 20.9676L24.883 20.9676C25.0139 20.9676 25.1436 20.9418 25.2645 20.8917C25.3855 20.8416 25.4954 20.7682 25.588 20.6756C25.6806 20.583 25.754 20.4731 25.8041 20.3521C25.8542 20.2312 25.88 20.1015 25.88 19.9706C25.88 19.8397 25.8542 19.71 25.8041 19.589C25.754 19.4681 25.6806 19.3582 25.588 19.2656C25.4954 19.173 25.3855 19.0996 25.2645 19.0495C25.1436 18.9993 25.0139 18.9736 24.883 18.9736L17.9675 18.9736L17.9675 12.0581C17.9675 11.5207 17.5149 11.0681 16.9775 11.0681Z" fill="#59D554"/>
</g>
<defs>
<clipPath id="clip0">
<rect width="24" height="24" fill="white" transform="translate(0 19.9706) rotate(-45)"/>
</clipPath>
</defs>
</svg>
