<svg width="29" height="21" viewBox="0 0 29 21" fill="none" xmlns="http://www.w3.org/2000/svg">
<path d="M10.375 7.75C10.0103 7.75 9.66059 7.89487 9.40273 8.15273C9.14487 8.41059 9 8.76033 9 9.125V11.875C9 12.2397 9.14487 12.5894 9.40273 12.8473C9.66059 13.1051 10.0103 13.25 10.375 13.25C10.7397 13.25 11.0894 13.1051 11.3473 12.8473C11.6051 12.5894 11.75 12.2397 11.75 11.875V9.125C11.75 8.76033 11.6051 8.41059 11.3473 8.15273C11.0894 7.89487 10.7397 7.75 10.375 7.75ZM26.875 9.125C27.2397 9.125 27.5894 8.98014 27.8473 8.72227C28.1051 8.46441 28.25 8.11467 28.25 7.75V2.25C28.25 1.88533 28.1051 1.53559 27.8473 1.27773C27.5894 1.01987 27.2397 0.875 26.875 0.875H2.125C1.76033 0.875 1.41059 1.01987 1.15273 1.27773C0.894866 1.53559 0.75 1.88533 0.75 2.25V7.75C0.75 8.11467 0.894866 8.46441 1.15273 8.72227C1.41059 8.98014 1.76033 9.125 2.125 9.125C2.48967 9.125 2.83941 9.26987 3.09727 9.52773C3.35513 9.78559 3.5 10.1353 3.5 10.5C3.5 10.8647 3.35513 11.2144 3.09727 11.4723C2.83941 11.7301 2.48967 11.875 2.125 11.875C1.76033 11.875 1.41059 12.0199 1.15273 12.2777C0.894866 12.5356 0.75 12.8853 0.75 13.25V18.75C0.75 19.1147 0.894866 19.4644 1.15273 19.7223C1.41059 19.9801 1.76033 20.125 2.125 20.125H26.875C27.2397 20.125 27.5894 19.9801 27.8473 19.7223C28.1051 19.4644 28.25 19.1147 28.25 18.75V13.25C28.25 12.8853 28.1051 12.5356 27.8473 12.2777C27.5894 12.0199 27.2397 11.875 26.875 11.875C26.5103 11.875 26.1606 11.7301 25.9027 11.4723C25.6449 11.2144 25.5 10.8647 25.5 10.5C25.5 10.1353 25.6449 9.78559 25.9027 9.52773C26.1606 9.26987 26.5103 9.125 26.875 9.125ZM25.5 6.6225C24.7037 6.91153 24.0156 7.43874 23.5294 8.13248C23.0432 8.82622 22.7823 9.65284 22.7823 10.5C22.7823 11.3472 23.0432 12.1738 23.5294 12.8675C24.0156 13.5613 24.7037 14.0885 25.5 14.3775V17.375H11.75C11.75 17.0103 11.6051 16.6606 11.3473 16.4027C11.0894 16.1449 10.7397 16 10.375 16C10.0103 16 9.66059 16.1449 9.40273 16.4027C9.14487 16.6606 9 17.0103 9 17.375H3.5V14.3775C4.29633 14.0885 4.98437 13.5613 5.47059 12.8675C5.95682 12.1738 6.21766 11.3472 6.21766 10.5C6.21766 9.65284 5.95682 8.82622 5.47059 8.13248C4.98437 7.43874 4.29633 6.91153 3.5 6.6225V3.625H9C9 3.98967 9.14487 4.33941 9.40273 4.59727C9.66059 4.85513 10.0103 5 10.375 5C10.7397 5 11.0894 4.85513 11.3473 4.59727C11.6051 4.33941 11.75 3.98967 11.75 3.625H25.5V6.6225Z" fill="#2B2B2B"/>
</svg>
