<svg width="35" height="35" viewBox="0 0 35 35" fill="none" xmlns="http://www.w3.org/2000/svg">
<rect x="1" y="1" width="33" height="33" rx="7" fill="white" stroke="#2B2B2B" stroke-width="2"/>
<g clip-path="url(#clip0)">
<path d="M28.8885 22.8786C28.861 22.8193 28.8354 22.7702 28.8116 22.7308C28.4177 22.0214 27.665 21.1507 26.5539 20.1183L26.5304 20.0947L26.5187 20.0831L26.5068 20.0712H26.4949C25.9906 19.5905 25.6713 19.2673 25.5375 19.1018C25.2928 18.7866 25.238 18.4675 25.3718 18.1442C25.4662 17.8999 25.8211 17.384 26.4356 16.5959C26.7588 16.1782 27.0148 15.8434 27.2038 15.5912C28.5672 13.7787 29.1583 12.6204 28.977 12.116L28.9066 11.9982C28.8592 11.9272 28.7371 11.8623 28.5403 11.8031C28.3431 11.744 28.091 11.7342 27.7836 11.7736L24.3794 11.7971C24.3243 11.7776 24.2455 11.7794 24.1429 11.8031C24.0405 11.8268 23.9892 11.8386 23.9892 11.8386L23.93 11.8682L23.8829 11.9038C23.8435 11.9273 23.8002 11.9687 23.7528 12.0278C23.7058 12.0867 23.6664 12.1559 23.6349 12.2346C23.2643 13.1882 22.8429 14.0747 22.37 14.8942C22.0784 15.3828 21.8106 15.8063 21.5661 16.1649C21.3218 16.5234 21.117 16.7875 20.9516 16.9567C20.786 17.1262 20.6365 17.262 20.5023 17.3645C20.3683 17.4671 20.266 17.5104 20.1952 17.4946C20.1242 17.4787 20.0573 17.463 19.994 17.4473C19.8837 17.3763 19.7951 17.2798 19.7282 17.1577C19.661 17.0355 19.6158 16.8818 19.5922 16.6966C19.5687 16.5113 19.5548 16.3519 19.5508 16.2179C19.5471 16.084 19.5488 15.8947 19.5568 15.6505C19.565 15.4061 19.5687 15.2407 19.5687 15.154C19.5687 14.8545 19.5745 14.5295 19.5862 14.1788C19.5981 13.8281 19.6078 13.5503 19.6159 13.3456C19.6239 13.1407 19.6276 12.9239 19.6276 12.6954C19.6276 12.4669 19.6137 12.2876 19.5862 12.1576C19.5591 12.0276 19.5174 11.9015 19.4624 11.7793C19.4072 11.6571 19.3263 11.5627 19.2201 11.4956C19.1138 11.4286 18.9815 11.3754 18.8242 11.3359C18.4065 11.2414 17.8746 11.1903 17.2283 11.1823C15.7626 11.1666 14.8209 11.2613 14.4032 11.4662C14.2377 11.5527 14.088 11.671 13.9541 11.8206C13.8122 11.9941 13.7924 12.0887 13.8948 12.1043C14.3677 12.1751 14.7025 12.3446 14.8995 12.6125L14.9705 12.7544C15.0258 12.8569 15.0809 13.0382 15.1361 13.2982C15.1912 13.5582 15.2268 13.8458 15.2424 14.1609C15.2817 14.7362 15.2817 15.2287 15.2424 15.6384C15.2029 16.0483 15.1657 16.3674 15.1301 16.5959C15.0946 16.8245 15.0414 17.0097 14.9705 17.1515C14.8995 17.2933 14.8523 17.38 14.8286 17.4115C14.805 17.4429 14.7853 17.4628 14.7696 17.4705C14.6672 17.5098 14.5606 17.5298 14.4504 17.5298C14.34 17.5298 14.2061 17.4746 14.0485 17.3642C13.891 17.2538 13.7275 17.1022 13.558 16.9091C13.3886 16.716 13.1975 16.4461 12.9846 16.0994C12.772 15.7527 12.5513 15.3429 12.3227 14.8701L12.1337 14.5272C12.0155 14.3067 11.854 13.9855 11.6491 13.564C11.4441 13.1423 11.2629 12.7344 11.1053 12.3404C11.0424 12.1749 10.9478 12.0489 10.8217 11.9622L10.7625 11.9267C10.7232 11.8952 10.6601 11.8618 10.5735 11.8262C10.4867 11.7906 10.3962 11.7651 10.3016 11.7494L7.0628 11.7729C6.73184 11.7729 6.50728 11.8479 6.38904 11.9977L6.34172 12.0685C6.31808 12.108 6.30615 12.171 6.30615 12.2577C6.30615 12.3444 6.32979 12.4508 6.37711 12.5768C6.84992 13.688 7.36408 14.7597 7.9196 15.792C8.47512 16.8243 8.95786 17.6558 9.36753 18.2858C9.77727 18.9163 10.1949 19.5114 10.6205 20.0707C11.0461 20.6303 11.3278 20.9889 11.4656 21.1464C11.6036 21.3042 11.712 21.4222 11.7907 21.501L12.0863 21.7846C12.2754 21.9738 12.5531 22.2003 12.9196 22.4643C13.2861 22.7284 13.6919 22.9884 14.1371 23.2447C14.5824 23.5006 15.1005 23.7094 15.6916 23.8709C16.2826 24.0326 16.8578 24.0975 17.4173 24.0662H18.7767C19.0524 24.0424 19.2613 23.9557 19.4032 23.806L19.4503 23.7468C19.4819 23.6998 19.5115 23.6267 19.5388 23.5284C19.5665 23.4299 19.5802 23.3214 19.5802 23.2033C19.5721 22.8645 19.5979 22.5592 19.6569 22.2874C19.7158 22.0156 19.783 21.8107 19.8581 21.6727C19.9331 21.5349 20.0178 21.4185 20.1121 21.3242C20.2066 21.2297 20.2739 21.1724 20.3134 21.1527C20.3526 21.1329 20.384 21.1194 20.4076 21.1114C20.5967 21.0483 20.8193 21.1094 21.0757 21.2947C21.3318 21.4799 21.5721 21.7086 21.7968 21.9803C22.0214 22.2523 22.2913 22.5575 22.6064 22.8963C22.9218 23.2352 23.1975 23.4871 23.4338 23.6529L23.6701 23.7947C23.8279 23.8893 24.0328 23.976 24.2851 24.0548C24.5368 24.1336 24.7574 24.1533 24.9468 24.1139L27.9727 24.0667C28.272 24.0667 28.5049 24.0172 28.6701 23.9188C28.8356 23.8203 28.9339 23.7118 28.9656 23.5938C28.9973 23.4756 28.999 23.3416 28.9716 23.1917C28.9436 23.0422 28.916 22.9377 28.8885 22.8786Z" fill="#2B2B2B"/>
</g>
<defs>
<clipPath id="clip0">
<rect width="22.7027" height="22.7027" fill="white" transform="translate(6.30615 6.30566)"/>
</clipPath>
</defs>
</svg>
