<svg width="44" height="44" viewBox="0 0 44 44" fill="none" xmlns="http://www.w3.org/2000/svg">
<rect width="44" height="44" rx="4" fill="#4D76A1"/>
<path fill-rule="evenodd" clip-rule="evenodd" d="M21.21 29.9372H22.8239C22.8239 29.9372 23.3114 29.8851 23.5603 29.6238C23.7894 29.3839 23.7821 28.9335 23.7821 28.9335C23.7821 28.9335 23.7506 26.8246 24.7556 26.514C25.7464 26.2081 27.0187 28.5522 28.3672 29.4535C29.3869 30.1357 30.1618 29.9861 30.1618 29.9861L33.7675 29.9372C33.7675 29.9372 35.6537 29.824 34.7593 28.3798C34.686 28.2617 34.2385 27.3115 32.0784 25.3589C29.8176 23.3154 30.1204 23.6459 32.8438 20.111C34.5024 17.9583 35.1655 16.644 34.9584 16.081C34.7608 15.5449 33.5409 15.6866 33.5409 15.6866L29.4811 15.7112C29.4811 15.7112 29.1802 15.6713 28.9569 15.8012C28.7388 15.9286 28.5985 16.2256 28.5985 16.2256C28.5985 16.2256 27.9559 17.8915 27.0989 19.3082C25.2911 22.2977 24.5683 22.4555 24.2729 22.2699C23.5856 21.8373 23.7572 20.5319 23.7572 19.6045C23.7572 16.7075 24.2084 15.4996 22.8785 15.1869C22.4372 15.083 22.1125 15.0145 20.9839 15.0034C19.5353 14.9888 18.3092 15.0077 17.615 15.3389C17.1531 15.5592 16.7969 16.05 17.0138 16.0782C17.2822 16.1132 17.8899 16.2377 18.2121 16.665C18.6281 17.2162 18.6134 18.4541 18.6134 18.4541C18.6134 18.4541 18.8524 21.8644 18.0552 22.2881C17.5079 22.5786 16.7573 21.9854 15.1456 19.2733C14.3197 17.884 13.6963 16.3484 13.6963 16.3484C13.6963 16.3484 13.576 16.0614 13.3616 15.9079C13.1014 15.722 12.7377 15.6627 12.7377 15.6627L8.87988 15.6873C8.87988 15.6873 8.30074 15.703 8.08814 15.9483C7.89901 16.1664 8.07311 16.6175 8.07311 16.6175C8.07311 16.6175 11.0934 23.4989 14.5133 26.9666C17.6491 30.146 21.21 29.9372 21.21 29.9372Z" fill="white"/>
</svg>
