<svg width="21" height="12" viewBox="0 0 21 12" fill="none" xmlns="http://www.w3.org/2000/svg">
<path d="M8.64062 8.12891L9.98047 1.04688H12.0244L9.81641 11H7.75195L6.13184 4.3418L4.51172 11H2.44727L0.239258 1.04688H2.2832L3.62988 8.11523L5.27051 1.04688H7.00684L8.64062 8.12891ZM20.9521 7.68457C20.8747 8.75553 20.4782 9.59863 19.7627 10.2139C19.0518 10.8291 18.113 11.1367 16.9463 11.1367C15.6702 11.1367 14.6654 10.7083 13.9316 9.85156C13.2025 8.99023 12.8379 7.8099 12.8379 6.31055V5.70215C12.8379 4.74512 13.0065 3.90202 13.3438 3.17285C13.681 2.44368 14.1618 1.88542 14.7861 1.49805C15.415 1.10612 16.1442 0.910156 16.9736 0.910156C18.1221 0.910156 19.0472 1.21777 19.749 1.83301C20.4508 2.44824 20.8564 3.31185 20.9658 4.42383H18.915C18.8649 3.78125 18.6849 3.31641 18.375 3.0293C18.0697 2.73763 17.6025 2.5918 16.9736 2.5918C16.29 2.5918 15.7773 2.83789 15.4355 3.33008C15.0983 3.81771 14.9251 4.5765 14.916 5.60645V6.3584C14.916 7.43392 15.0778 8.22005 15.4014 8.7168C15.7295 9.21354 16.2445 9.46191 16.9463 9.46191C17.5798 9.46191 18.0514 9.31836 18.3613 9.03125C18.6758 8.73958 18.8558 8.29069 18.9014 7.68457H20.9521Z" fill="#2B2B2B"/>
</svg>
