<svg width="45" height="45" viewBox="0 0 45 45" fill="none" xmlns="http://www.w3.org/2000/svg">
<path d="M45 22.5C45 10.0744 34.9256 0 22.5 0C10.0744 0 0 10.0744 0 22.5C0 34.9256 10.0744 45 22.5 45C34.9256 45 45 34.9256 45 22.5ZM39.375 22.5C39.375 29.8223 34.6584 36.007 28.125 38.3428L28.125 6.65719C34.6584 8.99297 39.375 15.1777 39.375 22.5ZM19.6875 22.5C19.6875 20.9461 20.9461 19.6875 22.5 19.6875C24.0539 19.6875 25.3125 20.9461 25.3125 22.5C25.3125 24.0539 24.0539 25.3125 22.5 25.3125C20.9461 25.3125 19.6875 24.0539 19.6875 22.5ZM22.5 5.625C22.5 13.3102 15.0947 19.5342 5.91047 19.665C7.27312 11.7113 14.1666 5.625 22.5 5.625ZM5.91047 25.335C15.0947 25.4658 22.5 31.6898 22.5 39.375C14.1666 39.375 7.27312 33.2887 5.91047 25.335Z" fill="#EEEEEE"/>
</svg>
