<svg width="18" height="12" viewBox="0 0 18 12" fill="none" xmlns="http://www.w3.org/2000/svg">
<path d="M0.75 3.75007L2.25 5.25007C5.9775 1.52257 12.0225 1.52257 15.75 5.25007L17.25 3.75007C12.6975 -0.802432 5.31 -0.802432 0.75 3.75007ZM6.75 9.75007L9 12.0001L11.25 9.75007C10.9548 9.45409 10.6041 9.21926 10.218 9.05903C9.83193 8.89881 9.41802 8.81633 9 8.81633C8.58198 8.81633 8.16807 8.89881 7.78197 9.05903C7.39588 9.21926 7.04519 9.45409 6.75 9.75007ZM3.75 6.75007L5.25 8.25007C6.24485 7.25605 7.59366 6.69768 9 6.69768C10.4063 6.69768 11.7552 7.25605 12.75 8.25007L14.25 6.75007C11.355 3.85507 6.6525 3.85507 3.75 6.75007Z" fill="#2B2B2B"/>
</svg>
